<svg width="17px" height="17px" viewBox="0 0 17 17" version="1.1" xmlns="http://www.w3.org/2000/svg" xmlns:xlink="http://www.w3.org/1999/xlink">
    <g id="Symbols" stroke="none" stroke-width="1" fill="none" fill-rule="evenodd">
        <g id="europass" transform="translate(-70.000000, -144.000000)" fill="#333333">
            <g id="paperclip-solid">
                <g transform="translate(70.000000, 144.000000)">
                    <path d="M1.64103712,15.4780459 C-0.57619209,13.4761776 -0.534868068,10.2479661 1.69363133,8.25336955 L9.65334378,1.12897086 C11.3349924,-0.376257211 14.0684873,-0.37639003 15.7502877,1.12897086 C17.415771,2.61965535 17.4177822,5.024826 15.7502877,6.51727032 L8.81176053,12.7216045 C7.67886,13.7355714 5.82789292,13.7214263 4.71419345,12.6884664 C3.6412488,11.6933264 3.67566651,10.1160113 4.76929215,9.1371415 L10.2238733,4.2615533 C10.4584602,4.05189985 10.8428609,4.04831376 11.0824567,4.25355101 L11.9499576,4.99663534 C12.1895914,5.20190579 12.1936517,5.53826775 11.9591028,5.7479212 L6.5050908,10.6230445 C6.31793738,10.7905614 6.30640157,11.0689151 6.4805013,11.2304219 C6.64640454,11.3842918 6.90721262,11.3868485 7.07581008,11.2359007 L14.0143373,5.03159972 C14.7585871,4.3654503 14.7585871,3.2808905 14.0139198,2.61437583 C13.2857595,1.96267038 12.1182135,1.96233834 11.3897496,2.61437583 L3.42999919,9.73874131 C2.11085596,10.9194946 2.09051649,12.8307478 3.38480459,13.9993151 C4.67537391,15.1645619 6.76149706,15.1660229 8.05445703,14.0088116 L14.5835766,8.16484625 C14.8179738,7.95502678 15.2023744,7.95124146 15.44216,8.15634589 L16.3102681,8.89893216 C16.5500536,9.10403658 16.5544175,9.44039854 16.3199824,9.65021801 L9.79086284,15.4941501 C7.53014664,17.5175682 3.87333119,17.4935945 1.64103712,15.4780459 Z" id="Path"></path>
                </g>
            </g>
        </g>
    </g>
</svg>