
<svg width="52px" height="95px" viewBox="0 0 52 95" version="1.1" xmlns="http://www.w3.org/2000/svg" xmlns:xlink="http://www.w3.org/1999/xlink">
    <g id="Desktop" stroke="none" stroke-width="1" fill="none" fill-rule="evenodd">
        <g id="tupasmodal" transform="translate(-388.000000, -224.000000)" fill="#333333">
            <g id="identify-modal" transform="translate(321.000000, 159.000000)">
                <g id="Group" transform="translate(67.000000, 65.000000)">
                    <circle id="Oval" cx="5.1" cy="5.1" r="5.1"></circle>
                    <circle id="Oval" cx="21.1" cy="5.1" r="5.1"></circle>
                    <circle id="Oval" cx="38.1" cy="5.1" r="5.1"></circle>
                    <circle id="Oval" cx="5.1" cy="21.1" r="5.1"></circle>
                    <circle id="Oval" cx="21.1" cy="21.1" r="5.1"></circle>
                    <circle id="Oval" cx="38.1" cy="21.1" r="5.1"></circle>
                    <circle id="Oval" cx="5.1" cy="37.1" r="5.1"></circle>
                    <circle id="Oval" cx="38.1" cy="37.1" r="5.1"></circle>
                    <path d="M46.896488,55.2453371 C45.196488,55.0453371 43.696488,55.6453371 42.696488,56.8453371 C42.196488,54.7453371 40.296488,53.1453371 37.996488,53.1453371 C36.496488,53.1453371 35.196488,53.8453371 34.296488,54.8453371 C33.696488,52.8453371 31.896488,51.4453371 29.696488,51.4453371 C28.396488,51.4453371 27.096488,51.9453371 26.296488,52.8453371 L26.296488,37.0453371 C26.296488,34.5453371 24.496488,32.3453371 22.096488,32.0453371 C19.096488,31.6453371 16.596488,33.9453371 16.596488,36.8453371 L16.596488,67.1453371 C16.596488,67.8453371 15.796488,68.0453371 15.396488,67.5453371 L9.79648802,59.0453371 C8.49648802,57.0453371 5.59648802,56.6453371 3.29648802,58.0453371 C1.09648802,59.5453371 0.296488019,62.3453371 1.69648802,64.3453371 C1.69648802,64.3453371 17.496488,88.2453371 17.596488,88.3453371 C20.496488,92.3453371 25.096488,94.7453371 30.096488,94.7453371 L35.696488,94.7453371 C44.096488,94.7453371 51.096488,87.9453371 51.196488,79.5453371 C51.196488,79.4453371 51.196488,79.3453371 51.196488,79.2453371 L51.196488,60.3453371 C51.096488,57.8453371 49.396488,55.6453371 46.896488,55.2453371 Z" id="Path"></path>
                </g>
            </g>
        </g>
    </g>
</svg>