<svg width="36px" height="21px" viewBox="0 0 36 21" version="1.1" xmlns="http://www.w3.org/2000/svg" xmlns:xlink="http://www.w3.org/1999/xlink">
    <g id="Symbols" stroke="none" stroke-width="1" fill="none" fill-rule="evenodd">
        <g id="profile-header" transform="translate(-553.000000, -84.000000)" fill="#000000" fill-rule="nonzero">
            <g id="Group-2" transform="translate(553.000000, 82.000000)">
                <g id="graduation-cap-solid" transform="translate(0.000000, 2.000000)">
                    <path d="M35.0064805,4.87822996 L19.3160442,0.191541722 C18.4610409,-0.0638472406 17.5385373,-0.0638472406 16.6840964,0.191541722 L0.993097629,4.87822996 C-0.331032543,5.27361801 -0.331032543,6.9760288 0.993097629,7.37141685 L3.72854581,8.18844278 C3.12835597,8.90976621 2.75935453,9.78968236 2.72279189,10.7532698 C2.18110227,11.0551429 1.79972578,11.5998268 1.79972578,12.250057 C1.79972578,12.8395844 2.11922703,13.3355968 2.57935383,13.6527822 L1.14328572,19.9352413 C1.01841023,20.4815659 1.4459119,21 2.02135165,21 L5.17755147,21 C5.75355372,21 6.18105539,20.4815659 6.05617991,19.9352413 L4.6201118,13.6527822 C5.08023859,13.3355968 5.39973984,12.8395844 5.39973984,12.250057 C5.39973984,11.6173267 5.03580092,11.0879552 4.5188614,10.7806134 C4.56161157,9.95921251 4.99361326,9.23296723 5.68267845,8.77250148 L16.6835339,12.058652 C17.1931609,12.2106822 18.1707897,12.4004466 19.3154817,12.058652 L35.0064805,7.37196372 C36.3311732,6.9760288 36.3311732,5.27416488 35.0064805,4.87822996 Z M19.8442338,13.7315317 C18.239415,14.2105911 16.8719722,13.9459053 16.1547819,13.7315317 L7.99737499,11.2952194 L7.19974687,17.5000228 C7.19974687,19.4332133 12.0350158,21 17.9997891,21 C23.9645624,21 28.7998312,19.4332133 28.7998312,17.5000228 L28.0022031,11.2946726 L19.8442338,13.7315317 Z" id="grad-hat"></path>
                </g>
            </g>
        </g>
    </g>
</svg>