<svg width="78px" height="61px" viewBox="0 0 78 61" version="1.1" xmlns="http://www.w3.org/2000/svg" xmlns:xlink="http://www.w3.org/1999/xlink">
    <g id="Desktop" stroke="none" stroke-width="1" fill="none" fill-rule="evenodd">
        <g id="front" transform="translate(-360.000000, -871.000000)" fill="#0041DC" fill-rule="nonzero">
            <g id="features" transform="translate(250.000000, 784.000000)">
                <g id="id-card-regular" transform="translate(110.000000, 87.000000)">
                    <path d="M71.5,0 L6.5,0 C2.91145833,0 0,2.92745536 0,6.53571429 L0,54.4642857 C0,58.0725446 2.91145833,61 6.5,61 L71.5,61 C75.0885417,61 78,58.0725446 78,54.4642857 L78,6.53571429 C78,2.92745536 75.0885417,0 71.5,0 Z M71,54 L40.5583333,54 C40.6802083,53.390625 40.6666667,54.4875 40.6666667,50.9666667 C40.6666667,46.6604167 36.590625,43.1666667 31.5666667,43.1666667 C30.1041667,43.1666667 29.034375,44.25 25.5,44.25 C21.8572917,44.25 20.9770833,43.1666667 19.4333333,43.1666667 C14.409375,43.1666667 10.3333333,46.6604167 10.3333333,50.9666667 C10.3333333,54.4875 10.30625,53.390625 10.4416667,54 L6,54 L6,15 L71,15 L71,54 Z M49.0625,44 L63.9375,44 C64.521875,44 65,43.55 65,43 L65,41 C65,40.45 64.521875,40 63.9375,40 L49.0625,40 C48.478125,40 48,40.45 48,41 L48,43 C48,43.55 48.478125,44 49.0625,44 Z M49.0625,35 L63.9375,35 C64.521875,35 65,34.55 65,34 L65,32 C65,31.45 64.521875,31 63.9375,31 L49.0625,31 C48.478125,31 48,31.45 48,32 L48,34 C48,34.55 48.478125,35 49.0625,35 Z M49.0625,26 L63.9375,26 C64.521875,26 65,25.55 65,25 L65,23 C65,22.45 64.521875,22 63.9375,22 L49.0625,22 C48.478125,22 48,22.45 48,23 L48,25 C48,25.55 48.478125,26 49.0625,26 Z M25.5,39 C30.1882813,39 34,35.1882813 34,30.5 C34,25.8117187 30.1882813,22 25.5,22 C20.8117187,22 17,25.8117187 17,30.5 C17,35.1882813 20.8117187,39 25.5,39 Z" id="profile"></path>
                </g>
            </g>
        </g>
    </g>
</svg>