<svg width="36px" height="24px" viewBox="0 0 36 24" version="1.1" xmlns="http://www.w3.org/2000/svg" xmlns:xlink="http://www.w3.org/1999/xlink">
    <g id="Symbols" stroke="none" stroke-width="1" fill="none" fill-rule="evenodd">
        <g id="profile-header" transform="translate(-559.000000, -135.000000)" fill="#000000" fill-rule="nonzero">
            <g id="briefcase-solid" transform="translate(559.000000, 135.000000)">
                <path d="M16.875,16.2857143 C16.875,16.7592857 16.4974219,17.1428571 16.03125,17.1428571 L10.96875,17.1428571 C10.5025781,17.1428571 10.125,16.7592857 10.125,16.2857143 L10.125,13.7142857 L0,13.7142857 L0,21.4285714 C0,22.8 1.18125,24 2.53125,24 L24.46875,24 C25.81875,24 27,22.8 27,21.4285714 L27,13.7142857 L16.875,13.7142857 L16.875,16.2857143 Z M24.46875,5.14285714 L20.25,5.14285714 L20.25,2.57142857 C20.25,1.2 19.06875,0 17.71875,0 L9.28125,0 C7.93125,0 6.75,1.2 6.75,2.57142857 L6.75,5.14285714 L2.53125,5.14285714 C1.18125,5.14285714 0,6.34285714 0,7.71428571 L0,12 L27,12 L27,7.71428571 C27,6.34285714 25.81875,5.14285714 24.46875,5.14285714 Z M16.875,5.14285714 L10.125,5.14285714 L10.125,3.42857143 L16.875,3.42857143 L16.875,5.14285714 Z" id="briefcase"></path>
            </g>
        </g>
    </g>
</svg>