<svg width="57px" height="57px" viewBox="0 0 57 57" version="1.1" xmlns="http://www.w3.org/2000/svg" xmlns:xlink="http://www.w3.org/1999/xlink">
    <g id="Desktop" stroke="none" stroke-width="1" fill="none" fill-rule="evenodd">
        <g id="profile" transform="translate(-535.000000, -1021.000000)" fill="#D3D3D3" fill-rule="nonzero">
            <g id="Group-6" transform="translate(535.000000, 1021.000000)">
                <g id="Group-4">
                    <g id="Group-5">
                        <path d="M56.4824192,8.9983125 L51.7002484,4.3955625 C51.037745,3.7580625 50.1389486,3.4 49.2015063,3.4 L32.2668139,3.4 L32.2668139,1.7 C32.2668139,0.76075 31.4762264,0 30.500138,0 L26.9667863,0 C25.9906979,0 25.2001104,0.76075 25.2001104,1.7 L25.2001104,3.4 L6.6500138,3.4 C5.18698535,3.4 4,4.5421875 4,5.95 L4,14.45 C4,15.8578125 5.18698535,17 6.6500138,17 L49.2015063,17 C50.1389486,17 51.0366408,16.6419375 51.7002484,16.0044375 L56.4824192,11.40275 C57.1725269,10.737625 57.1725269,9.662375 56.4824192,8.9983125 Z M24,55.25 C24,56.216875 24.783125,57 25.75,57 L29.25,57 C30.216875,57 31,56.216875 31,55.25 L31,43 L24,43 L24,55.25 Z M50.3499862,24.4 L31.7998896,24.4 L31.7998896,21 L24.7331861,21 L24.7331861,24.4 L7.79849374,24.4 C6.86105136,24.4 5.96335918,24.7580625 5.29975156,25.3955625 L0.517580821,29.9983125 C-0.17252694,30.662375 -0.17252694,31.7386875 0.517580821,32.40275 L5.29975156,37.0044375 C5.96225501,37.6419375 6.86105136,38 7.79849374,38 L50.3499862,38 C51.8130147,38 53,36.8578125 53,35.45 L53,26.95 C53,25.5421875 51.8130147,24.4 50.3499862,24.4 Z" id="map"></path>
                    </g>
                </g>
            </g>
        </g>
    </g>
</svg>