<svg width="62px" height="62px" viewBox="0 0 62 62" version="1.1" xmlns="http://www.w3.org/2000/svg" xmlns:xlink="http://www.w3.org/1999/xlink">
    <g id="Desktop" stroke="none" stroke-width="1" fill="none" fill-rule="evenodd">
        <g id="front" transform="translate(-1005.000000, -870.000000)" fill="#333333" fill-rule="nonzero">
            <g id="features" transform="translate(250.000000, 784.000000)">
                <g id="map-signs-solid" transform="translate(755.000000, 86.000000)">
                    <path d="M61.4335908,10.0569375 L56.2002719,4.9126875 C55.4752681,4.2001875 54.4916796,3.8 53.4657993,3.8 L34.9334944,3.8 L34.9334944,1.9 C34.9334944,0.85025 34.0683233,0 33.000151,0 L29.1334642,0 C28.065292,0 27.2001208,0.85025 27.2001208,1.9 L27.2001208,3.8 L6.9000151,3.8 C5.2989651,3.8 4,5.0765625 4,6.65 L4,16.15 C4,17.7234375 5.2989651,19 6.9000151,19 L53.4657993,19 C54.4916796,19 55.4740598,18.5998125 56.2002719,17.8873125 L61.4335908,12.74425 C62.1888031,12.000875 62.1888031,10.799125 61.4335908,10.0569375 Z M27,60 C27,61.105 27.783125,62 28.75,62 L32.25,62 C33.216875,62 34,61.105 34,60 L34,46 L27,46 L27,60 Z M55.0999849,26.8 L34.7998792,26.8 L34.7998792,23 L27.0665056,23 L27.0665056,26.8 L8.5342007,26.8 C7.50832036,26.8 6.52594024,27.2001875 5.79972812,27.9126875 L0.5664092,33.0569375 C-0.188803067,33.799125 -0.188803067,35.0020625 0.5664092,35.74425 L5.79972812,40.8873125 C6.5247319,41.5998125 7.50832036,42 8.5342007,42 L55.0999849,42 C56.7010349,42 58,40.7234375 58,39.15 L58,29.65 C58,28.0765625 56.7010349,26.8 55.0999849,26.8 Z" id="map"></path>
                </g>
            </g>
        </g>
    </g>
</svg>