<svg width="86px" height="67px" viewBox="0 0 86 67" version="1.1" xmlns="http://www.w3.org/2000/svg" xmlns:xlink="http://www.w3.org/1999/xlink">
    <g id="Desktop" stroke="none" stroke-width="1" fill="none" fill-rule="evenodd">
        <g id="grant-access-modal" transform="translate(-383.000000, -203.000000)" fill="#333333" fill-rule="nonzero">
            <g id="mydata-modal" transform="translate(321.000000, 160.000000)">
                <g id="id-card-regular-(1)" transform="translate(62.000000, 43.000000)">
                    <path d="M78.8333333,0 L7.16666667,0 C3.21006944,0 0,3.21540179 0,7.17857143 L0,59.8214286 C0,63.7845982 3.21006944,67 7.16666667,67 L78.8333333,67 C82.7899306,67 86,63.7845982 86,59.8214286 L86,7.17857143 C86,3.21540179 82.7899306,0 78.8333333,0 Z M78.26,59.2692308 L44.8303667,59.2692308 C44.9642042,58.5981571 44.9493333,59.8060897 44.9493333,55.9287749 C44.9493333,51.1865207 40.4732125,47.3390313 34.9561333,47.3390313 C33.3500833,47.3390313 32.1752875,48.5320513 28.294,48.5320513 C24.2937458,48.5320513 23.3271417,47.3390313 21.6318667,47.3390313 C16.1147875,47.3390313 11.6386667,51.1865207 11.6386667,55.9287749 C11.6386667,59.8060897 11.608925,58.5981571 11.7576333,59.2692308 L6.88,59.2692308 L6.88,16.3205128 L78.26,16.3205128 L78.26,59.2692308 Z M53.6425,47.2435897 L70.1975,47.2435897 C70.847875,47.2435897 71.38,46.7604167 71.38,46.1698718 L71.38,44.0224359 C71.38,43.431891 70.847875,42.9487179 70.1975,42.9487179 L53.6425,42.9487179 C52.992125,42.9487179 52.46,43.431891 52.46,44.0224359 L52.46,46.1698718 C52.46,46.7604167 52.992125,47.2435897 53.6425,47.2435897 Z M53.6425,38.6538462 L70.1975,38.6538462 C70.847875,38.6538462 71.38,38.1706731 71.38,37.5801282 L71.38,35.4326923 C71.38,34.8421474 70.847875,34.3589744 70.1975,34.3589744 L53.6425,34.3589744 C52.992125,34.3589744 52.46,34.8421474 52.46,35.4326923 L52.46,37.5801282 C52.46,38.1706731 52.992125,38.6538462 53.6425,38.6538462 Z M53.6425,28.3461538 L70.1975,28.3461538 C70.847875,28.3461538 71.38,27.8629808 71.38,27.2724359 L71.38,25.125 C71.38,24.5344551 70.847875,24.0512821 70.1975,24.0512821 L53.6425,24.0512821 C52.992125,24.0512821 52.46,24.5344551 52.46,25.125 L52.46,27.2724359 C52.46,27.8629808 52.992125,28.3461538 53.6425,28.3461538 Z M28.38,42.9487179 C33.5977813,42.9487179 37.84,38.7115585 37.84,33.5 C37.84,28.2884415 33.5977813,24.0512821 28.38,24.0512821 C23.1622188,24.0512821 18.92,28.2884415 18.92,33.5 C18.92,38.7115585 23.1622188,42.9487179 28.38,42.9487179 Z" id="Shape"></path>
                </g>
            </g>
        </g>
    </g>
</svg>