
<svg width="31px" height="16px" viewBox="0 0 31 16" version="1.1" xmlns="http://www.w3.org/2000/svg" xmlns:xlink="http://www.w3.org/1999/xlink">
    <g id="Desktop" stroke="none" stroke-width="1" fill="none" fill-rule="evenodd">
        <g id="front" transform="translate(-647.000000, -373.000000)" fill="#333333" fill-rule="nonzero">
            <g id="hero">
                <g id="btn-big" transform="translate(279.000000, 349.000000)">
                    <g id="plane-departure-solid" transform="translate(368.000000, 24.000000)">
                        <path d="M3.90170429,15.4644777 C4.20588602,15.8064913 4.63309666,16.0004991 5.0801663,15.999999 L11.4030776,15.9909987 C11.9020674,15.9903096 12.3938902,15.8683477 12.8387378,15.6349845 L26.9318454,8.25219071 C28.2270396,7.57366371 29.3880644,6.60512516 30.1780651,5.33657468 C31.0649389,3.91251801 31.1613277,2.881977 30.8111312,2.15394803 C30.4619034,1.42541904 29.6128102,0.890397745 27.9897003,0.781393407 C26.5438684,0.684389547 25.1057863,1.07740519 23.8105921,1.75543217 L19.0391046,4.25503164 L8.44602431,0.151868355 C8.1866652,-0.028500125 7.85302725,-0.0497394021 7.57416586,0.0963661462 L4.38946066,1.76493255 C3.87264234,2.03544331 3.74767596,2.74747165 4.13904354,3.19148932 L11.7058062,8.09668452 L6.70666669,10.7157887 L3.20228006,8.89221618 C2.95742425,8.76477661 2.66845198,8.76514788 2.42390421,8.89321622 L0.480144214,9.91175675 C-0.0255336907,10.1767673 -0.158734288,10.8677948 0.210352458,11.3158126 L3.90170429,15.4644777 Z" id="Shape"></path>
                    </g>
                </g>
            </g>
        </g>
    </g>
</svg>