<svg width="16px" height="16px" viewBox="0 0 16 16" version="1.1" xmlns="http://www.w3.org/2000/svg" xmlns:xlink="http://www.w3.org/1999/xlink">
    <g id="Desktop" stroke="none" stroke-width="1" fill="none" fill-rule="evenodd">
        <g id="educations" transform="translate(-271.000000, -303.000000)">
            <rect fill="#FFFFFF" x="0" y="0" width="1440" height="1999"></rect>
            <g id="Shape-Copy-2" transform="translate(271.000000, 303.000000)" fill="#333333" fill-rule="nonzero">
                <path d="M3.25,7 L0.75,7 C0.33578125,7 0,7.33578125 0,7.75 L0,15.25 C0,15.6642187 0.33578125,16 0.75,16 L3.25,16 C3.66421875,16 4,15.6642187 4,15.25 L4,7.75 C4,7.33578125 3.66421875,7 3.25,7 Z M2,15 C1.44770833,15 1,14.5522917 1,14 C1,13.4477083 1.44770833,13 2,13 C2.55229167,13 3,13.4477083 3,14 C3,14.5522917 2.55229167,15 2,15 Z M12.0000062,2.545375 C12.0000062,3.870875 11.188443,4.614375 10.9600991,5.5 L14.1389456,5.5 C15.1826028,5.5 15.9951035,6.3670625 15.9999785,7.3155625 C16.0026035,7.876125 15.7641658,8.47959375 15.3925093,8.85296875 L15.3890718,8.85640625 C15.696447,9.5856875 15.6464782,10.6075625 15.0981965,11.3398125 C15.369478,12.1490313 15.0960402,13.1430625 14.5862585,13.6759688 C14.7205712,14.2259063 14.6563836,14.6939375 14.3941334,15.0707188 C13.7563203,15.9870937 12.1755064,16 10.8387239,16 L10.7498176,15.9999688 C9.24084753,15.9994375 8.00587768,15.4500313 7.01356429,15.0085625 C6.5149076,14.7867188 5.86290702,14.5120938 5.36821908,14.503 C5.1638439,14.49925 5,14.3324688 5,14.1280625 L5,7.44775 C5,7.34775 5.04006254,7.25178125 5.1111876,7.18146875 C6.3491262,5.95821875 6.88143918,4.663125 7.89609633,3.64675 C8.35872174,3.18325 8.52697189,2.483125 8.68962829,1.8060625 C8.82859716,1.22790625 9.11928492,0 9.75000423,0 C10.5000049,0 12.0000062,0.25 12.0000062,2.545375 Z"></path>
            </g>
        </g>
    </g>
</svg>