<svg width="23px" height="23px" viewBox="0 0 23 23" version="1.1" xmlns="http://www.w3.org/2000/svg" xmlns:xlink="http://www.w3.org/1999/xlink">
    <g id="Symbols" stroke="none" stroke-width="1" fill="none" fill-rule="evenodd">
        <g id="4col-edu-card" transform="translate(-260.000000, -82.000000)" fill="#D3D3D3" fill-rule="nonzero">
            <g id="Group-3">
                <g id="thumbs-up-solid-copy" transform="translate(260.000000, 82.000000)">
                    <path d="M4.44940476,9.85714286 L1.02678571,9.85714286 C0.459700521,9.85714286 0,10.3474901 0,10.952381 L0,21.9047619 C0,22.5096528 0.459700521,23 1.02678571,23 L4.44940476,23 C5.01648996,23 5.47619048,22.5096528 5.47619048,21.9047619 L5.47619048,10.952381 C5.47619048,10.3474901 5.01648996,9.85714286 4.44940476,9.85714286 Z M3.28571429,20.8095238 C2.68082341,20.8095238 2.19047619,20.3191766 2.19047619,19.7142857 C2.19047619,19.1093948 2.68082341,18.6190476 3.28571429,18.6190476 C3.89060516,18.6190476 4.38095238,19.1093948 4.38095238,19.7142857 C4.38095238,20.3191766 3.89060516,20.8095238 3.28571429,20.8095238 Z M17.4242511,3.65897656 C17.4242511,5.56438281 16.2929812,6.63316406 15.9746835,7.90625 L20.405803,7.90625 C21.8605979,7.90625 22.9931746,9.15265234 22.9999701,10.5161211 C23.0036292,11.3219297 22.6712615,12.189416 22.1531947,12.7261426 L22.148403,12.731084 C22.5768655,13.7794258 22.5072121,15.2483711 21.7429406,16.3009805 C22.1210905,17.4642324 21.7399349,18.8931523 21.0293301,19.6592051 C21.2165537,20.4497402 21.1270802,21.1225352 20.7615192,21.6641582 C19.8724465,22.9814473 17.6688877,23 15.805494,23 L15.681564,22.9999551 C13.5781511,22.9991914 11.856678,22.2094199 10.4734533,21.5748086 C9.77835605,21.2559082 8.86950675,20.8611348 8.17994174,20.8480625 C7.89505513,20.8426719 7.66666667,20.6029238 7.66666667,20.3090898 L7.66666667,10.7061406 C7.66666667,10.5623906 7.72251141,10.4244355 7.82165544,10.3233613 C9.54726683,8.56493945 10.2892789,6.70324219 11.7036494,5.24220313 C12.3485212,4.57592188 12.5830517,3.56949219 12.8097849,2.59621484 C13.0034991,1.76511523 13.4087002,0 14.2878847,0 C15.3333402,0 17.4242511,0.359375 17.4242511,3.65897656 Z" id="Shape"></path>
                </g>
            </g>
        </g>
    </g>
</svg>