<svg width="16px" height="19px" viewBox="0 0 16 19" version="1.1" xmlns="http://www.w3.org/2000/svg" xmlns:xlink="http://www.w3.org/1999/xlink">
    <g id="Symbols" stroke="none" stroke-width="1" fill="none" fill-rule="evenodd">
        <g id="header" transform="translate(-1171.000000, -48.000000)" fill="#FFFFFF" fill-rule="nonzero">
            <g transform="translate(0.000000, -86.000000)" id="user-solid">
                <g transform="translate(1171.000000, 134.000000)">
                    <path d="M8,9.14285714 C10.525,9.14285714 12.5714286,7.09642857 12.5714286,4.57142857 C12.5714286,2.04642857 10.525,0 8,0 C5.475,0 3.42857143,2.04642857 3.42857143,4.57142857 C3.42857143,7.09642857 5.475,9.14285714 8,9.14285714 Z M11.2,10.2857143 L10.6035714,10.2857143 C9.81071429,10.65 8.92857143,10.8571429 8,10.8571429 C7.07142857,10.8571429 6.19285714,10.65 5.39642857,10.2857143 L4.8,10.2857143 C2.15,10.2857143 0,12.4357143 0,15.0857143 L0,16.5714286 C0,17.5178571 0.767857143,18.2857143 1.71428571,18.2857143 L14.2857143,18.2857143 C15.2321429,18.2857143 16,17.5178571 16,16.5714286 L16,15.0857143 C16,12.4357143 13.85,10.2857143 11.2,10.2857143 Z" id="user"></path>
                </g>
            </g>
        </g>
    </g>
</svg>