<svg width="14px" height="21px" viewBox="0 0 14 21" version="1.1" xmlns="http://www.w3.org/2000/svg" xmlns:xlink="http://www.w3.org/1999/xlink">
    <g id="Desktop" stroke="none" stroke-width="1" fill="none" fill-rule="evenodd">
        <g id="profile" transform="translate(-256.000000, -406.000000)" fill="#333333" fill-rule="nonzero">
            <g id="lightbulb-solid" transform="translate(256.000000, 406.000000)">
                <path d="M3.8201707,18.3083506 C3.82056848,18.5617863 3.894555,18.8099842 4.03337917,19.0211135 L4.71318006,20.0562112 C4.94904242,20.4155963 5.34681411,20.6315723 5.77285797,20.6315789 L8.22753981,20.6315789 C8.65358367,20.6315723 9.05135536,20.4155963 9.28721772,20.0562112 L9.9670186,19.0211135 C10.1057828,18.8099538 10.1799491,18.5620134 10.1802271,18.3083506 L10.1818182,16.7631579 L3.81818182,16.7631579 L3.8201707,18.3083506 Z M0,7.09193919 C0,8.87982451 0.654261364,10.5109626 1.7325,11.7572843 C2.38954545,12.5168434 3.41727273,14.1036571 3.80903409,15.4422542 C3.810625,15.4527309 3.81181818,15.4632075 3.81340909,15.4736842 L10.1865909,15.4736842 C10.1881818,15.4632075 10.189375,15.4531338 10.1909659,15.4422542 C10.5827273,14.1036571 11.6104545,12.5168434 12.2675,11.7572843 C13.3457386,10.5109626 14,8.87982451 14,7.09193919 C14,3.16761753 10.854375,-0.0120541196 6.978125,3.43545569e-05 C2.92090909,0.0125257778 0,3.34330335 0,7.09193919 Z M7,3.86842105 C5.245625,3.86842105 3.81818182,5.31464638 3.81818182,7.09210526 C3.81818182,7.44832237 3.53340909,7.73684211 3.18181818,7.73684211 C2.83022727,7.73684211 2.54545455,7.44832237 2.54545455,7.09210526 C2.54545455,4.60342105 4.54363636,2.57894737 7,2.57894737 C7.35159091,2.57894737 7.63636364,2.86746711 7.63636364,3.22368421 C7.63636364,3.57990132 7.35159091,3.86842105 7,3.86842105 Z" id="Shape"></path>
            </g>
        </g>
    </g>
</svg>