<svg width="21px" height="21px" viewBox="0 0 21 21" version="1.1" xmlns="http://www.w3.org/2000/svg" xmlns:xlink="http://www.w3.org/1999/xlink">
    <g id="Desktop" stroke="none" stroke-width="1" fill="none" fill-rule="evenodd">
        <g id="profile" transform="translate(-490.000000, -406.000000)" fill="#333333" fill-rule="nonzero">
            <g id="book-reader-solid" transform="translate(490.000000, 406.000000)">
                <path d="M14,4 C14,1.79083333 12.2091667,0 10,0 C7.79083333,0 6,1.79083333 6,4 C6,6.20916667 7.79083333,8 10,8 C12.2091667,8 14,6.20916667 14,4 Z M9.73251115,9.99463898 C7.26053081,8.51911938 3.25653098,8.1136765 1.24161493,8.00195626 C0.56455981,7.96458077 0,8.46752495 0,9.10250213 L0,18.1538724 C0,18.7360364 0.482896546,19.2215115 1.10370401,19.2527932 C2.92279488,19.3458257 6.60305821,19.686674 9.14670222,20.9359093 C9.53710262,21.1276619 10,20.8664397 10,20.4536842 L10,10.4602077 C9.99958335,10.2704864 9.90333736,10.0966091 9.73251115,9.99463898 Z M19.7579167,8.00195624 C17.7433333,8.11326892 13.73875,8.51911334 11.2670833,9.99461577 C11.09625,10.0965847 11,10.2773662 11,10.4670853 L11,20.4523205 C11,20.8662899 11.4641667,21.1279154 11.8558333,20.9357588 C14.3991667,19.6877567 18.0775,19.3469124 19.89625,19.253881 C20.5170833,19.2221935 21,18.7367239 21,18.1545667 L21,9.1024893 C20.9995833,8.46751951 20.435,7.96458118 19.7579167,8.00195624 Z" id="Shape"></path>
            </g>
        </g>
    </g>
</svg>