<svg width="20px" height="15px" viewBox="0 0 20 15" version="1.1" xmlns="http://www.w3.org/2000/svg" xmlns:xlink="http://www.w3.org/1999/xlink">
    <g id="Desktop" stroke="none" stroke-width="1" fill="none" fill-rule="evenodd">
        <g id="profile" transform="translate(-730.000000, -407.000000)" fill="#333333" fill-rule="nonzero">
            <g id="chart-bar-solid" transform="translate(730.000000, 407.000000)">
                <path d="M13,9.8245614 L14.5,9.8245614 C14.75,9.8245614 15,9.57894737 15,9.33333333 L15,4.1754386 C15,3.92982456 14.75,3.68421053 14.5,3.68421053 L13,3.68421053 C12.75,3.68421053 12.5,3.92982456 12.5,4.1754386 L12.5,9.33333333 C12.5,9.57894737 12.75,9.8245614 13,9.8245614 Z M16.75,9.8245614 L18.25,9.8245614 C18.5,9.8245614 18.75,9.57894737 18.75,9.33333333 L18.75,0.49122807 C18.75,0.245614035 18.5,0 18.25,0 L16.75,0 C16.5,0 16.25,0.245614035 16.25,0.49122807 L16.25,9.33333333 C16.25,9.57894737 16.5,9.8245614 16.75,9.8245614 Z M5.5,9.8245614 L7,9.8245614 C7.25,9.8245614 7.5,9.57894737 7.5,9.33333333 L7.5,6.63157895 C7.5,6.38596491 7.25,6.14035088 7,6.14035088 L5.5,6.14035088 C5.25,6.14035088 5,6.38596491 5,6.63157895 L5,9.33333333 C5,9.57894737 5.25,9.8245614 5.5,9.8245614 Z M9.25,9.8245614 L10.75,9.8245614 C11,9.8245614 11.25,9.57894737 11.25,9.33333333 L11.25,1.71929825 C11.25,1.47368421 11,1.22807018 10.75,1.22807018 L9.25,1.22807018 C9,1.22807018 8.75,1.47368421 8.75,1.71929825 L8.75,9.33333333 C8.75,9.57894737 9,9.8245614 9.25,9.8245614 Z M19.375,12.2807018 L2.5,12.2807018 L2.5,0.614035088 C2.5,0.274780702 2.2203125,0 1.875,0 L0.625,0 C0.2796875,0 0,0.274780702 0,0.614035088 L0,13.5087719 C0,14.1868969 0.559765625,14.7368421 1.25,14.7368421 L19.375,14.7368421 C19.7203125,14.7368421 20,14.4620614 20,14.122807 L20,12.8947368 C20,12.5554825 19.7203125,12.2807018 19.375,12.2807018 Z" id="Shape"></path>
            </g>
        </g>
    </g>
</svg>