<svg width="17px" height="17px" viewBox="0 0 17 17" version="1.1" xmlns="http://www.w3.org/2000/svg" xmlns:xlink="http://www.w3.org/1999/xlink">
    <g id="Desktop" stroke="none" stroke-width="1" fill="none" fill-rule="evenodd">
        <g id="profile" transform="translate(-970.000000, -407.000000)" fill="#333333">
            <path d="M985.1875,409.362504 L979.7875,409.362504 L979.7875,408.012502 C979.7875,407.453348 979.334153,407 978.775,407 L977.425,407 C976.865847,407 976.4125,407.453348 976.4125,408.012502 L976.4125,409.362504 L971.0125,409.362504 C970.453347,409.362504 970,409.815852 970,410.375006 L970,411.725009 C970,412.284163 970.453347,412.737511 971.0125,412.737511 L980.640194,412.737511 C980.111753,413.943991 979.246487,415.182028 978.107003,416.383024 C977.553503,415.801004 977.061006,415.209365 976.641831,414.616799 C976.334791,414.182773 975.748722,414.053594 975.292253,414.326042 L974.678003,414.692736 L974.129734,415.020027 C973.627197,415.320065 973.480637,415.983676 973.814594,416.464277 C974.326328,417.200788 974.919737,417.927005 975.585119,418.634912 C974.899825,419.160232 974.164159,419.668002 973.382678,420.150628 C972.916844,420.438347 972.759906,421.041292 973.031509,421.516661 L973.701531,422.689139 C973.9852,423.185518 974.624172,423.349459 975.1111,423.049927 C976.185362,422.389185 977.184278,421.685159 978.101603,420.949745 C979.022725,421.688955 980.022484,422.392729 981.088141,423.049083 C981.575322,423.349121 982.2148,423.185602 982.498637,422.688801 L983.168913,421.515733 C983.440009,421.041292 983.284506,420.439106 982.820022,420.151303 C982.061868,419.681993 981.327989,419.174557 980.621209,418.630947 C982.395109,416.738834 983.639134,414.725305 984.225119,412.737342 L985.1875,412.737342 C985.746653,412.737342 986.2,412.283994 986.2,411.72484 L986.2,410.374838 C986.2,409.815852 985.746653,409.362504 985.1875,409.362504 Z" id="Path"></path>
        </g>
    </g>
</svg>