<svg width="20px" height="16px" viewBox="0 0 20 16" version="1.1" xmlns="http://www.w3.org/2000/svg" xmlns:xlink="http://www.w3.org/1999/xlink">
    <g id="Desktop" stroke="none" stroke-width="1" fill="none" fill-rule="evenodd">
        <g id="profile" transform="translate(-255.000000, -692.000000)" fill="#333333" fill-rule="nonzero">
            <g id="comments-solid" transform="translate(255.000000, 692.000000)">
                <path d="M14.4444444,5.71428571 C14.4444444,2.55714286 11.2118056,0 7.22222222,0 C3.23263889,0 0,2.55714286 0,5.71428571 C0,6.93928571 0.489583333,8.06785714 1.31944444,9 C0.854166667,10.0785714 0.0868055556,10.9357143 0.0763888889,10.9464286 C9.25185854e-17,11.0285714 -0.0208333333,11.15 0.0243055556,11.2571429 C0.0694444444,11.3642857 0.166666667,11.4285714 0.277777778,11.4285714 C1.54861111,11.4285714 2.60069444,10.9892857 3.35763889,10.5357143 C4.47569444,11.0964286 5.79861111,11.4285714 7.22222222,11.4285714 C11.2118056,11.4285714 14.4444444,8.87142857 14.4444444,5.71428571 Z M18.6805556,13.5714286 C19.5104167,12.6428571 20,11.5107143 20,10.2857143 C20,7.89642857 18.1423611,5.85 15.5104167,4.99642857 C15.5416667,5.23214286 15.5555556,5.47142857 15.5555556,5.71428571 C15.5555556,9.49642857 11.8159722,12.5714286 7.22222222,12.5714286 C6.84722222,12.5714286 6.48263889,12.5428571 6.12152778,12.5035714 C7.21527778,14.5571429 9.78472222,16 12.7777778,16 C14.2013889,16 15.5243056,15.6714286 16.6423611,15.1071429 C17.3993056,15.5607143 18.4513889,16 19.7222222,16 C19.8333333,16 19.9340278,15.9321429 19.9756944,15.8285714 C20.0208333,15.725 20,15.6035714 19.9236111,15.5178571 C19.9131944,15.5071429 19.1458333,14.6535714 18.6805556,13.5714286 Z" id="Shape"></path>
            </g>
        </g>
    </g>
</svg>