<svg width="22px" height="13px" viewBox="0 0 22 13" version="1.1" xmlns="http://www.w3.org/2000/svg" xmlns:xlink="http://www.w3.org/1999/xlink">
    <g id="Desktop" stroke="none" stroke-width="1" fill="none" fill-rule="evenodd">
        <g id="profile" transform="translate(-489.000000, -695.000000)" fill="#333333" fill-rule="nonzero">
            <g id="handshake-alt-solid" transform="translate(489.000000, 695.000000)">
                <path d="M11.5475,5.19473029 L10.4225,6.12538229 C8.9,7.38091645 7.1675,6.5281008 6.60875,5.97647797 C5.6,4.98152637 5.67875,3.44172033 6.77375,2.53475764 L9.84125,0 L6.69875,0 C6.38,0 6.07625,0.11506243 5.85125,0.318113776 L3.8,2.16588103 L0.6,2.16588103 C0.27,2.16588103 2.5243549e-29,2.40954265 2.5243549e-29,2.70735129 L2.5243549e-29,9.20161019 C2.5243549e-29,9.49941884 0.27,9.74308045 0.6,9.74308045 L4.48625,9.74308045 L7.88,12.5147313 C8.9075,13.2694055 10.41875,13.1272696 11.255,12.2000017 L11.2625,12.1932334 L11.93375,12.7177827 C12.53,13.1577273 13.41125,13.0731225 13.895,12.5350365 L15.0725,11.2287395 L15.275,11.3776438 C15.78875,11.7532888 16.54625,11.685605 16.9625,11.2185869 L17.31875,10.8226368 C17.73875,10.3556187 17.66,9.67539667 17.14625,9.29636749 L11.5475,5.19473029 Z M21.4,2.16588103 L18.2,2.16588103 L16.1525,0.318113776 C15.9275,0.11506243 15.62375,0 15.305,0 L12.08375,0 C11.78375,0 11.495,0.101525673 11.27375,0.284271885 L7.5875,3.33004209 C7.58375,3.33342627 7.58,3.34019465 7.57625,3.34357884 C6.95,3.87489653 6.965,4.71755962 7.4975,5.23872474 C7.8575,5.5940646 8.81,5.96970959 9.60125,5.33009785 C9.605,5.32671366 9.6125,5.32671366 9.61625,5.32332947 L11.60375,3.68199775 L12.61625,2.84610304 C12.86,2.64643588 13.23875,2.65997264 13.46375,2.87994493 C13.68875,3.09991723 13.67,3.44172033 13.42625,3.64477167 L12.4475,4.45359287 L17.9075,8.4537044 C18.365,8.78873912 18.63875,9.24898884 18.74,9.73631207 L21.4,9.73631207 C21.73,9.73631207 22,9.49265046 22,9.19484182 L22,2.7039671 C22,2.40615846 21.73,2.16588103 21.4,2.16588103 Z" id="Shape"></path>
            </g>
        </g>
    </g>
</svg>