<svg width="20px" height="18px" viewBox="0 0 20 18" version="1.1" xmlns="http://www.w3.org/2000/svg" xmlns:xlink="http://www.w3.org/1999/xlink">
    <g id="Desktop" stroke="none" stroke-width="1" fill="none" fill-rule="evenodd">
        <g id="profile" transform="translate(-969.000000, -692.000000)" fill="#333333" fill-rule="nonzero">
            <g id="gift-solid" transform="translate(969.000000, 692.000000)">
                <path d="M1.25,16.7142857 C1.25,17.4254464 1.80859375,18 2.5,18 L8.75,18 L8.75,11.5714286 L1.25,11.5714286 L1.25,16.7142857 Z M11.25,18 L17.5,18 C18.1914062,18 18.75,17.4254464 18.75,16.7142857 L18.75,11.5714286 L11.25,11.5714286 L11.25,18 Z M18.75,5.14285714 L17.1054688,5.14285714 C17.3476562,4.65669643 17.5,4.11830357 17.5,3.53571429 C17.5,1.58705357 15.9570312,0 14.0625,0 C12.4375,0 11.3867188,0.855803571 10.0390625,2.74419643 C8.69140625,0.855803571 7.640625,0 6.015625,0 C4.12109375,0 2.578125,1.58705357 2.578125,3.53571429 C2.578125,4.11830357 2.7265625,4.65669643 2.97265625,5.14285714 L1.25,5.14285714 C0.55859375,5.14285714 0,5.71741071 0,6.42857143 L0,9.64285714 C0,9.99642857 0.28125,10.2857143 0.625,10.2857143 L19.375,10.2857143 C19.71875,10.2857143 20,9.99642857 20,9.64285714 L20,6.42857143 C20,5.71741071 19.4414062,5.14285714 18.75,5.14285714 Z M6.01171875,5.14285714 C5.1484375,5.14285714 4.44921875,4.42366071 4.44921875,3.53571429 C4.44921875,2.64776786 5.1484375,1.92857143 6.01171875,1.92857143 C6.7890625,1.92857143 7.36328125,2.06116071 9.375,5.14285714 L6.01171875,5.14285714 Z M14.0625,5.14285714 L10.6992188,5.14285714 C12.7070313,2.06919643 13.265625,1.92857143 14.0625,1.92857143 C14.9257813,1.92857143 15.625,2.64776786 15.625,3.53571429 C15.625,4.42366071 14.9257813,5.14285714 14.0625,5.14285714 Z" id="Shape"></path>
            </g>
        </g>
    </g>
</svg>